inDegrees=no
num_controls=7
num_derivatives=13
num_iterations=119
num_multipliers=7
num_parameters=0
num_slacks=7
num_states=26
objective=5.452625
objective_accelerations=0.617613
objective_balance=0.050361
objective_effort=0.507899
objective_height=4.256123
objective_ligament=0.020629
solver_duration=1327.809782
status=Solve_Succeeded
success=true
DataType=double
version=3
OpenSimVersion=4.4-2022-07-23-0e9fedc
endheader
time	/jointset/ground_pelvis/pelvis_tilt/value	/jointset/ground_pelvis/pelvis_tx/value	/jointset/ground_pelvis/pelvis_ty/value	/jointset/hip_l/hip_flexion_l/value	/jointset/hip_l/hip_adduction_l/value	/jointset/hip_l/hip_rotation_l/value	/jointset/back/lumbar_extension/value	/jointset/patellofemoral_l/patellar_flexion_l/value	/jointset/knee_l/knee_flexion_l/value	/jointset/knee_l/knee_adduction_l/value	/jointset/knee_l/knee_rotation_l/value	/jointset/ankle_l/ankle_angle_l/value	/jointset/subtalar_l/subtalar_angle_l/value	/jointset/ground_pelvis/pelvis_tilt/speed	/jointset/ground_pelvis/pelvis_tx/speed	/jointset/ground_pelvis/pelvis_ty/speed	/jointset/hip_l/hip_flexion_l/speed	/jointset/hip_l/hip_adduction_l/speed	/jointset/hip_l/hip_rotation_l/speed	/jointset/back/lumbar_extension/speed	/jointset/patellofemoral_l/patellar_flexion_l/speed	/jointset/knee_l/knee_flexion_l/speed	/jointset/knee_l/knee_adduction_l/speed	/jointset/knee_l/knee_rotation_l/speed	/jointset/ankle_l/ankle_angle_l/speed	/jointset/subtalar_l/subtalar_angle_l/speed	/forceset/tau_hip_flexion_l	/forceset/tau_hip_adduction_l	/forceset/tau_hip_rotation_l	/forceset/tau_knee_flexion_l	/forceset/tau_ankle_angle_l	/forceset/tau_subtalar_angle_l	/forceset/tau_lumbar_extension	lambda_cid13_p0	lambda_cid13_p1	lambda_cid13_p2	lambda_cid13_p3	lambda_cid13_p4	lambda_cid13_p5	lambda_cid14_p0	/jointset/ground_pelvis/pelvis_tilt/accel	/jointset/ground_pelvis/pelvis_tx/accel	/jointset/ground_pelvis/pelvis_ty/accel	/jointset/hip_l/hip_flexion_l/accel	/jointset/hip_l/hip_adduction_l/accel	/jointset/hip_l/hip_rotation_l/accel	/jointset/back/lumbar_extension/accel	/jointset/patellofemoral_l/patellar_flexion_l/accel	/jointset/knee_l/knee_flexion_l/accel	/jointset/knee_l/knee_adduction_l/accel	/jointset/knee_l/knee_rotation_l/accel	/jointset/ankle_l/ankle_angle_l/accel	/jointset/subtalar_l/subtalar_angle_l/accel	gamma_cid13_p0	gamma_cid13_p1	gamma_cid13_p2	gamma_cid13_p3	gamma_cid13_p4	gamma_cid13_p5	gamma_cid14_p0
1.5	-0.5054425915379653	-0.1128383798246163	0.7524342356022868	1.340194588227095	-0.310527643291058	-0.06950812919834033	-0.3501951870485343	0.6248782934794019	0.624878293479358	-0.1744300453844578	0.1694770614484583	-0.05211206728391581	-0.06682049680002501	0.9027229016286709	0.3507913932827048	0.5171838264108264	-2.521540466955206	0.06155465948978039	-0.4983322274087871	0.5594122235685005	-1.566092025610873	-1.566092025610778	0.000684236682473803	-0.02980117903859305	-0.006483862239436232	0.07481092822916877	-0.2786063191403506	0.008151500413890567	-0.01830470355642144	-0.1848113673110565	0.1927991477208534	0.04570012473402131	0.2420045056020952	22.53855742044252	-25.78828978089718	5.987009980814744	-8.695120886932846	-611.323694708569	-62.67356236792119	-31.72557010084298	0.7067585590761133	0.8016780180155205	-0.2475234313379434	-1.719405719914941	0.4428150590988467	-0.1696907960960014	1.874283567763871	-1.034073696511958	-1.034073696511889	0.02513874260898323	-0.0956945053130052	0.06365790219178347	0.4427688499465677	-2.031030890411186e-08	7.2355111701769e-07	-1.732474289093891e-07	1.479074376152769e-07	1.721687461628787e-07	-1.725495341217224e-07	1.233220928722661e-07
1.51	-0.4963804765619852	-0.1092906453612877	0.757592713519559	1.314895515741258	-0.3098908859979628	-0.07450024226516305	-0.3445088483742844	0.6091678934278693	0.6091678934278754	-0.1744232345650786	0.1691757819813158	-0.05217370841829176	-0.06605116833426804	0.9095714966957195	0.3587180997308736	0.514408615790666	-2.537932621305189	0.06579706265963049	-0.5000254959698264	0.5777908419195028	-1.575771046421108	-1.575771046421005	0.0006779403758449984	-0.03045299121477231	-0.005825190495434595	0.07905582809759132	-0.2695644296426442	0.007587293074142973	-0.01818818291028785	-0.1837304538989334	0.1907627279130022	0.04484095114244326	0.2351710802830158	22.16128800814418	-25.4660185273412	6.069187616718819	-8.433027097743203	-606.4230266525302	-62.87355421373265	-32.52851812393911	0.6546286649988287	0.7825888692521441	-0.3079529221759071	-1.547897785591442	0.4148854611243734	-0.1592676252723017	1.809950564612519	-0.9023008681639588	-0.9023008681629968	-0.01336397650211839	-0.04957532707739346	0.06984479917328236	0.4154032228269631	-2.708639704901783e-08	7.758720361564247e-07	-1.617358868577009e-07	1.55416944981824e-07	1.84408250516585e-07	-1.628057044753275e-07	1.255399195691376e-07
1.52	-0.487253731898413	-0.1056647594512711	0.7627203527216649	1.289442766213373	-0.3092117181701098	-0.07950731256541217	-0.3386406635973406	0.5933672062492602	0.5933672062492651	-0.1744164567406478	0.1688680542417411	-0.05222818823745373	-0.06523938033632046	0.9156488391418882	0.3664216826203164	0.5110160833772547	-2.552275875377316	0.07003676643729217	-0.5013236740974308	0.5957814441042595	-1.584149451026752	-1.584149451026641	0.0006776377011148766	-0.03109083352323169	-0.005051599204656127	0.0833028346674942	-0.2605225401446302	0.007023085734531788	-0.01807166226439579	-0.1826495404867672	0.1887263081051661	0.04398177755099999	0.2283376549642444	21.77437739119689	-25.14353527730335	6.153017441829463	-8.134417748104902	-601.6586471766597	-63.11817454800864	-33.30840333390294	0.5525080348990041	0.7570533062709517	-0.3709877899879505	-1.309625664344221	0.4422751806611713	-0.09067270940872235	1.7966803345144	-0.7739504555934371	-0.7739504555933712	0.02633746898863333	-0.09290053176909764	0.0866418115481655	0.4431901902428298	-3.356797531163279e-08	8.251659285865534e-07	-1.520209087910669e-07	1.616244351844618e-07	1.971800332072135e-07	-1.516971205465311e-07	1.273300990210377e-07
1.53	-0.4780700669895885	-0.1019630573072301	0.7678110087409439	1.263856889771303	-0.3084902272173535	-0.08452551739042585	-0.3325948248924389	0.5774893002078559	0.5774893002078434	-0.1744096750018189	0.1685541303231018	-0.05227440213355081	-0.06438517720216902	0.920949194702533	0.3738698416190453	0.5070136656272231	-2.564538084628014	0.07425838953005372	-0.5022494084823339	0.6132960735355876	-1.591204060037205	-1.591204060037145	0.0006799479162324605	-0.03169370442781491	-0.004175090501004378	0.0875350914856869	-0.2513197362136064	0.006292460505031594	-0.01798177125796395	-0.1815342648933473	0.1866488502486435	0.04300648790634121	0.2212971161391172	21.37613989684659	-24.77169450955445	6.232467887687651	-7.7817309881712	-596.7882647219274	-63.28650016869017	-34.06179526156968	0.4985633299251193	0.731395319566527	-0.4300434631911067	-1.130309728085807	0.4115266150195511	-0.08319128018440364	1.715320746398495	-0.6370874176000066	-0.6370874176080612	-0.01247241601064081	-0.04385007330328016	0.09056524539253114	0.4127152563470025	-3.973663682431352e-08	8.712436051387886e-07	-1.442147799585528e-07	1.664485321504459e-07	2.105173616308219e-07	-1.391384851926831e-07	1.286659032751557e-07
1.54	-0.4688374457224577	-0.09818833394862457	0.7728586056435872	1.23815923300228	-0.3077266358853606	-0.08955091305475447	-0.3263765465934057	0.5615476738176118	0.5615476738174768	-0.1744028002036785	0.1682342037546165	-0.05231136897349285	-0.06348875713408822	0.925440110794212	0.381025925533234	0.5024042600498705	-2.574631940784917	0.07845684228024603	-0.5027618419533543	0.6302693629251681	-1.596893520800818	-1.596893520800809	0.0006962495799994803	-0.03229136347239739	-0.003202187972577612	0.09174622145345566	-0.2421169322821963	0.005561835275509176	-0.01789188025215014	-0.1804189892998399	0.1845713923920808	0.04203119826165563	0.2142565773144351	20.96805974429363	-24.39935004217977	6.31323111033909	-7.388117446113336	-592.0541748322	-63.49950082548243	-34.78535397582064	0.3906201411048968	0.6986382893636203	-0.4923853554519831	-0.8759550455857817	0.4376411121473709	-0.008012526631908325	1.688412326164647	-0.5009208062253403	-0.5009208062254022	0.02913575871847401	-0.09185815976903736	0.1059205765042807	0.4389648201582859	-4.612276379554166e-08	9.164820571048169e-07	-1.343693047019245e-07	1.704261700190194e-07	2.242207649230774e-07	-1.254876723034941e-07	1.293792509787864e-07
1.55	-0.4595640412566642	-0.09434360917536103	0.7778571121365417	1.212371577053969	-0.3069212793266117	-0.09457957470443661	-0.3199915038815636	0.5455559979503497	0.5455559979504101	-0.1743957753991411	0.1679085253474708	-0.05233819870475091	-0.06255044315327413	0.9290923856840674	0.3878593022119843	0.4971981092790331	-2.582514667834272	0.08260227233133559	-0.5029068924659601	0.6466275069652316	-1.601205737917595	-1.601205737917566	0.0007027099207826838	-0.03283626076120094	-0.002153229675905027	0.09590404705797362	-0.2327146864179628	0.004619241949900854	-0.01785806956050539	-0.1794495058554173	0.1827478820567833	0.04089303889760394	0.2069990553722656	20.63771205034562	-23.97394862192772	6.390181122753042	-7.015602574928733	-587.2934458951672	-63.63595232061243	-35.47569357718965	0.3302751227768856	0.6667633413758849	-0.5495200882955869	-0.6867370993979232	0.4010226259560574	-0.008058347878986728	1.592764571377108	-0.3610108294479097	-0.3610108294451735	-0.01431902484074625	-0.03450288382017763	0.1059588778587286	0.4021724767998096	-5.275944879509613e-08	9.607535763954332e-07	-1.221741476957734e-07	1.734285397970981e-07	2.383459501292088e-07	-1.105784809496729e-07	1.293754204829426e-07
1.56	-0.4502585652499708	-0.09043233543846182	0.7828005990917095	1.186516632722283	-0.3060748627324578	-0.0996077482661836	-0.3134462299036065	0.5295282721789486	0.5295282721790829	-0.1743888300305576	0.1675776584932492	-0.05235422376899695	-0.06157095470717518	0.9318544189679421	0.3943357182603637	0.4914003524922601	-2.588089617475149	0.08666884935711532	-0.50266422435073	0.6623156161432854	-1.604103501636154	-1.604103501636105	0.0006803623975925079	-0.03332905286535647	-0.001041254514832429	0.09998111451052773	-0.2233124405534055	0.003676648624117784	-0.01782425886934735	-0.1784800224110253	0.180924371721355	0.03975487953336222	0.1997415334305539	20.29750920358121	-23.54761349492633	6.467886746787862	-6.598501356825731	-582.6662204542765	-63.81631190999841	-36.12959679812074	0.2125718199078904	0.6272461632898099	-0.6107065586390417	-0.4143995638905222	0.4218705070854776	0.06953119893545696	1.554405353762471	-0.2180301265817034	-0.2180301265817146	0.02337418592380142	-0.08143712283956342	0.1185239493848698	0.4228131897656655	-5.384569290594689e-08	9.916015182270421e-07	-1.270564293417391e-07	1.687129494713094e-07	2.584071602723587e-07	-9.705939925206167e-08	1.302856690482319e-07
